HIERARCHY
ROOT Hips
{
	OFFSET 0.000000 0.000000 0.000000
	CHANNELS 6 Xposition Yposition Zposition Zrotation Yrotation Xrotation 
	JOINT LowerBack
	{
		OFFSET 0.000000 0.000000 0.000000
		CHANNELS 3 Zrotation Yrotation Xrotation
		JOINT Spine
		{
			OFFSET 0.028270 2.035590 -0.193380
			CHANNELS 3 Zrotation Yrotation Xrotation
			JOINT Spine1
			{
				OFFSET 0.056720 2.048850 -0.042750
				CHANNELS 3 Zrotation Yrotation Xrotation
				JOINT Neck
				{
					OFFSET 0.000000 0.000000 0.000000
					CHANNELS 3 Zrotation Yrotation Xrotation
					JOINT Neck1
					{
						OFFSET -0.054170 1.746240 0.172020
						CHANNELS 3 Zrotation Yrotation Xrotation
						JOINT Head
						{
							OFFSET 0.104070 1.761360 -0.123970
							CHANNELS 3 Zrotation Yrotation Xrotation
							End Site
							{
								OFFSET 0.000000 0.000000 0.000000
							}
						}
					}
				}
				JOINT LeftShoulder
				{
					OFFSET 0.000000 0.000000 0.000000
					CHANNELS 3 Zrotation Yrotation Xrotation
					JOINT LeftArm
					{
						OFFSET 3.362410 1.200890 -0.311210
						CHANNELS 3 Zrotation Yrotation Xrotation
						JOINT LeftForeArm
						{
							OFFSET 4.983000 -0.000000 -0.000000
							CHANNELS 3 Zrotation Yrotation Xrotation
							JOINT LeftHand
							{
								OFFSET 3.483560 -0.000000 -0.000000
								CHANNELS 3 Zrotation Yrotation Xrotation
								JOINT LeftFingerBase
								{
									OFFSET 0.000000 0.000000 0.000000
									CHANNELS 3 Zrotation Yrotation Xrotation
									JOINT LeftHandIndex1
									{
										OFFSET 0.715260 -0.000000 -0.000000
										CHANNELS 3 Zrotation Yrotation Xrotation
										End Site
										{
											OFFSET 0.000000 0.000000 0.000000
										}
									}
								}
								JOINT LThumb
								{
									OFFSET 0.000000 0.000000 0.000000
									CHANNELS 3 Zrotation Yrotation Xrotation
									End Site
									{
										OFFSET 0.000000 0.000000 0.000000
									}
								}
							}
						}
					}
				}
				JOINT RightShoulder
				{
					OFFSET 0.000000 0.000000 0.000000
					CHANNELS 3 Zrotation Yrotation Xrotation
					JOINT RightArm
					{
						OFFSET -3.136600 1.374050 -0.404650
						CHANNELS 3 Zrotation Yrotation Xrotation
						JOINT RightForeArm
						{
							OFFSET -5.241900 -0.000000 -0.000000
							CHANNELS 3 Zrotation Yrotation Xrotation
							JOINT RightHand
							{
								OFFSET -3.444170 -0.000000 -0.000000
								CHANNELS 3 Zrotation Yrotation Xrotation
								JOINT RightFingerBase
								{
									OFFSET 0.000000 0.000000 0.000000
									CHANNELS 3 Zrotation Yrotation Xrotation
									JOINT RightHandIndex1
									{
										OFFSET -0.622530 -0.000000 -0.000000
										CHANNELS 3 Zrotation Yrotation Xrotation
										End Site
										{
											OFFSET 0.000000 0.000000 0.000000
										}
									}
								}
								JOINT RThumb
								{
									OFFSET 0.000000 0.000000 0.000000
									CHANNELS 3 Zrotation Yrotation Xrotation
									End Site
									{
										OFFSET 0.000000 0.000000 0.000000
									}
								}
							}
						}
					}
				}
			}
		}
	}
}
}
MOTION
Frames: 15
Frame Time: 0.008333
-0.459850 16.812402 0.528512 24.059752 76.831789 34.980066 -0.233532 -3.772889 -1.799751 -0.729791 -3.868556 -3.169425 -6.957736 -3.938446 0.949103 9.612844 -7.361852 -6.640499 -4.384748 -0.348662 0.249890 0.000000 0.000000 0.000000 -5.302021 5.323737 1.528154 -57.542098 3.086842 14.724433 -2.841777 -38.250379 0.001866 7.159879 0.570409 0.037683 -0.105613 -0.010958 0.000000 0.000000 0.000000 0.000000 0.000000 0.000000 0.000000 19.646077 -6.822505 0.744371 66.856967 -4.913804 -7.122233 4.063267 10.363923 0.004632 0.474654 2.198210 0.007304 0.107145 -0.013977 -0.000000 0.000000 0.000000 0.000000 0.000000 0.000000 0.000000 
-0.233824 16.818602 0.608546 20.734743 76.009728 31.977604 0.239424 -3.535507 -2.061207 -0.651655 -3.673191 -3.231594 -6.960737 -3.745182 0.947117 9.565425 -7.115342 -6.618704 -4.398450 -0.350492 0.258573 0.000000 0.000000 0.000000 -5.415789 5.666961 1.495780 -58.114916 3.458100 14.421113 -2.841030 -37.462418 0.002078 7.244121 0.682062 0.045443 -0.102868 -0.014519 0.000000 0.000000 0.000000 0.000000 0.000000 0.000000 0.000000 19.597461 -6.415652 0.751050 67.045735 -4.404311 -6.662656 4.081166 10.550732 0.004625 0.675448 2.168367 0.011115 0.106138 -0.015313 -0.000000 0.000000 0.000000 0.000000 0.000000 0.000000 0.000000 
-0.013323 16.826623 0.690453 17.769067 75.103062 29.347872 0.651860 -3.300366 -2.287758 -0.586693 -3.476013 -3.285282 -6.970886 -3.550062 0.943920 9.566462 -6.874191 -6.601500 -4.410955 -0.352133 0.265419 0.000000 0.000000 0.000000 -5.455557 5.981429 1.467639 -58.736214 3.877388 14.086241 -2.838719 -36.676112 0.002258 7.302279 0.804121 0.053901 -0.100005 -0.017871 0.000000 0.000000 0.000000 0.000000 0.000000 0.000000 0.000000 19.594023 -6.010280 0.765143 67.254964 -3.766098 -6.118490 4.089387 10.740959 0.004689 0.862682 2.175187 0.014728 0.104774 -0.017087 -0.000000 0.000000 0.000000 0.000000 0.000000 0.000000 0.000000 
0.201578 16.836510 0.775258 15.281154 74.146316 27.197982 0.973227 -3.081943 -2.482080 -0.540194 -3.289270 -3.331630 -6.990241 -3.365667 0.935021 9.617784 -6.594517 -6.576813 -4.425252 -0.353884 0.273440 0.000000 0.000000 0.000000 -5.420999 6.276648 1.450710 -59.377225 4.327608 13.767948 -2.838501 -35.889174 0.002405 7.324410 0.932602 0.062461 -0.097270 -0.021002 0.000000 0.000000 0.000000 0.000000 0.000000 0.000000 0.000000 19.645394 -5.567059 0.782407 67.503684 -3.057576 -5.654582 4.088382 10.945129 0.004831 1.054298 2.221205 0.018843 0.102896 -0.019462 -0.000000 0.000000 0.000000 0.000000 0.000000 0.000000 0.000000 
0.411302 16.848430 0.863598 13.293024 73.175517 25.546508 1.187267 -2.890525 -2.652285 -0.514246 -3.122062 -3.370022 -7.017848 -3.200964 0.927646 9.719376 -6.340562 -6.555908 -4.440580 -0.355631 0.279914 0.000000 0.000000 0.000000 -5.328643 6.524854 1.440397 -60.011434 4.839712 13.465840 -2.839860 -35.140498 0.002540 7.291365 1.066250 0.071022 -0.094609 -0.024165 0.000000 0.000000 0.000000 0.000000 0.000000 0.000000 0.000000 19.761020 -5.160906 0.801962 67.772711 -2.223686 -5.098008 4.075257 11.146880 0.005050 1.212195 2.311929 0.022860 0.100701 -0.022232 -0.000000 0.000000 0.000000 0.000000 0.000000 0.000000 0.000000 
0.616318 16.862447 0.955919 11.792071 72.219538 24.375779 1.285331 -2.732914 -2.809461 -0.510290 -2.980737 -3.404241 -7.054428 -3.062651 0.915630 9.863453 -6.053708 -6.523250 -4.459752 -0.357694 0.288847 0.000000 0.000000 0.000000 -5.187988 6.747563 1.442903 -60.615043 5.384263 13.236931 -2.846624 -34.414951 0.002649 7.191431 1.200710 0.078786 -0.092239 -0.027315 0.000000 0.000000 0.000000 0.000000 0.000000 0.000000 0.000000 19.936483 -4.733158 0.818945 68.083304 -1.350560 -4.648594 4.052622 11.371174 0.005336 1.369194 2.439320 0.027678 0.098012 -0.025533 -0.000000 0.000000 0.000000 0.000000 0.000000 0.000000 0.000000 
0.817450 16.878538 1.052335 10.725145 71.302573 23.633482 1.269761 -2.611520 -2.964818 -0.527140 -2.867951 -3.434479 -7.097746 -2.953171 0.906406 10.043708 -5.804220 -6.491165 -4.481301 -0.359916 0.297302 0.000000 0.000000 0.000000 -5.021174 6.917797 1.450883 -61.171298 5.990027 13.073487 -2.857544 -33.745880 0.002742 7.006137 1.335326 0.085253 -0.090027 -0.030707 0.000000 0.000000 0.000000 0.000000 0.000000 0.000000 0.000000 20.172228 -4.361593 0.833189 68.413495 -0.385857 -4.109045 4.018973 11.607157 0.005670 1.491957 2.603232 0.032397 0.095091 -0.029115 -0.000000 0.000000 0.000000 0.000000 0.000000 0.000000 0.000000 
1.015462 16.896574 1.152756 10.033233 70.439951 23.259971 1.149982 -2.525663 -3.128902 -0.562809 -2.783824 -3.464031 -7.146570 -2.872858 0.896091 10.247503 -5.550259 -6.448771 -4.506349 -0.362465 0.308123 0.000000 0.000000 0.000000 -4.838835 7.058214 1.467201 -61.670583 6.623940 13.017008 -2.875146 -33.111026 0.002795 6.727464 1.465468 0.089821 -0.088097 -0.034269 0.000000 0.000000 0.000000 0.000000 0.000000 0.000000 0.000000 20.453567 -4.001554 0.840685 68.777853 0.596614 -3.613918 3.977189 11.884554 0.006028 1.610669 2.789338 0.037717 0.091822 -0.033003 -0.000000 0.000000 0.000000 0.000000 0.000000 0.000000 0.000000 
1.211273 16.916279 1.256854 9.649861 69.639707 23.191422 0.940986 -2.470969 -3.310331 -0.614107 -2.725060 -3.493967 -7.198293 -2.818314 0.887668 10.464341 -5.329179 -6.401652 -4.533593 -0.365243 0.320090 0.000000 0.000000 0.000000 -4.657651 7.153335 1.486531 -62.109987 7.298230 13.056954 -2.898325 -32.523965 0.002794 6.346628 1.590406 0.091992 -0.086329 -0.038132 0.000000 0.000000 0.000000 0.000000 0.000000 0.000000 0.000000 20.770553 -3.691892 0.841597 69.163935 1.608519 -3.055304 3.927897 12.209940 0.006390 1.714811 2.988711 0.043338 0.088385 -0.037023 -0.000000 0.000000 0.000000 0.000000 0.000000 0.000000 0.000000 
1.405664 16.937278 1.364120 9.506485 68.899357 23.361682 0.662358 -2.440412 -3.514504 -0.677174 -2.685941 -3.525552 -7.250247 -2.783795 0.881810 10.682251 -5.148628 -6.350604 -4.561997 -0.368189 0.333125 0.000000 0.000000 0.000000 -4.488732 7.205996 1.506098 -62.493850 8.002853 13.189944 -2.926708 -31.978625 0.002715 5.863373 1.708230 0.091363 -0.084682 -0.042304 0.000000 0.000000 0.000000 0.000000 0.000000 0.000000 0.000000 21.107442 -3.437842 0.835315 69.567676 2.633647 -2.403685 3.872939 12.598395 0.006736 1.808781 3.189949 0.048959 0.084877 -0.041081 -0.000000 0.000000 0.000000 0.000000 0.000000 0.000000 0.000000 
1.599405 16.959036 1.473802 9.531519 68.208652 23.700847 0.337667 -2.424395 -3.743705 -0.747605 -2.658388 -3.560726 -7.299830 -2.761334 0.875251 10.887625 -4.984620 -6.290259 -4.590681 -0.371280 0.348707 0.000000 0.000000 0.000000 -4.337653 7.230883 1.526363 -62.832856 8.714402 13.415722 -2.960317 -31.454689 0.002524 5.285889 1.817347 0.087834 -0.083167 -0.046680 0.000000 0.000000 0.000000 0.000000 0.000000 0.000000 0.000000 21.440907 -3.208719 0.821105 69.993099 3.623215 -1.717220 3.814993 13.078276 0.007053 1.914147 3.376265 0.055182 0.081265 -0.045158 -0.000000 0.000000 0.000000 0.000000 0.000000 0.000000 0.000000 
1.793104 16.980980 1.585097 9.651623 67.548805 24.136573 -0.008477 -2.411544 -3.995545 -0.820906 -2.632519 -3.599693 -7.344419 -2.740958 0.868270 11.070249 -4.848860 -6.223918 -4.617883 -0.374371 0.366094 0.000000 0.000000 0.000000 -4.211240 7.228997 1.544344 -63.140598 9.428185 13.707506 -2.997549 -30.948568 0.002196 4.626845 1.920075 0.081504 -0.081713 -0.051240 0.000000 0.000000 0.000000 0.000000 0.000000 0.000000 0.000000 21.753442 -3.011303 0.800453 70.430975 4.575650 -0.943832 3.755715 13.659964 0.007340 2.030136 3.538321 0.061603 0.077673 -0.049197 -0.000000 0.000000 0.000000 0.000000 0.000000 0.000000 0.000000 
1.987269 17.002490 1.697108 9.795650 66.896121 24.596187 -0.351770 -2.389993 -4.263189 -0.892785 -2.597895 -3.641978 -7.381723 -2.712101 0.861028 11.221760 -4.745353 -6.154919 -4.641902 -0.377299 0.384454 0.000000 0.000000 0.000000 -4.113412 7.209852 1.558109 -63.432631 10.130835 14.038566 -3.036928 -30.451195 0.001718 3.905675 2.020289 0.072672 -0.080290 -0.055913 0.000000 0.000000 0.000000 0.000000 0.000000 0.000000 0.000000 22.028322 -2.843347 0.774886 70.871809 5.489542 -0.050780 3.696802 14.351360 0.007600 2.157049 3.670227 0.068128 0.074204 -0.053186 -0.000000 0.000000 0.000000 0.000000 0.000000 0.000000 0.000000 
2.182162 17.022865 1.809089 9.900511 66.224000 25.011564 -0.670933 -2.348605 -4.537241 -0.959763 -2.544671 -3.688505 -7.410659 -2.665029 0.846541 11.334077 -4.637361 -6.075759 -4.661956 -0.380039 0.405748 0.000000 0.000000 0.000000 -4.043042 7.184033 1.570557 -63.724531 10.814443 14.384122 -3.077560 -29.951819 0.001073 3.147469 2.123529 0.061839 -0.078908 -0.060556 0.000000 0.000000 0.000000 0.000000 0.000000 0.000000 0.000000 22.244794 -2.659046 0.746130 71.318067 6.323453 0.881925 3.640005 15.171959 0.007845 2.315160 3.762492 0.075350 0.070731 -0.057217 -0.000000 0.000000 0.000000 0.000000 0.000000 0.000000 0.000000 
2.377948 17.041483 1.920484 9.919389 65.506894 25.329863 -0.952191 -2.278878 -4.804463 -1.019674 -2.465022 -3.736136 -7.430155 -2.591516 0.829848 11.407832 -4.558819 -5.998942 -4.676388 -0.382352 0.426649 0.000000 0.000000 0.000000 -4.001491 7.157645 1.577569 -64.028525 11.474906 14.705397 -3.117239 -29.454989 0.000279 2.378781 2.238315 0.049702 -0.077510 -0.065152 0.000000 0.000000 0.000000 0.000000 0.000000 0.000000 0.000000 22.402062 -2.489541 0.716676 71.748999 7.125632 1.966122 3.585622 16.102161 0.008098 2.482299 3.825211 0.082475 0.067483 -0.061293 -0.000000 0.000000 0.000000 0.000000 0.000000 0.000000 0.000000 
